<svg xmlns="http://www.w3.org/2000/svg" width="24" height="24" viewBox="0 0 24 24" fill="none">
<g id="Logo Light">
<path id="Vector" d="M9.50373 23.7076C11.6189 21.1534 13.7197 18.6206 15.8132 16.0855C16.7417 14.9625 17.6631 13.8323 18.5796 12.6998C19.0547 12.1144 19.0161 11.8157 18.4228 11.3546C17.2386 10.4323 16.0544 9.51235 14.8629 8.59961C14.2575 8.13607 13.9271 8.18386 13.4375 8.77403C12.3907 10.0332 11.3488 11.2972 10.3021 12.554C9.8245 13.1275 9.46031 13.1657 8.86217 12.7308C7.48741 11.7321 7.47294 11.6389 8.54139 10.3295C9.9668 8.58049 11.3946 6.83386 12.8225 5.08723C13.4182 4.35848 13.7245 4.32264 14.477 4.89848C17.0529 6.86732 19.6263 8.83616 22.1998 10.8074C22.9909 11.4119 23.0174 11.6723 22.3783 12.4608C19.8506 15.579 17.3133 18.6851 14.8002 21.8152C13.7486 23.1246 12.3111 23.5499 10.7338 23.7004C10.3213 23.7387 9.90168 23.7052 9.50131 23.7052L9.50373 23.7076Z" fill="#000000"/>
<path id="Vector_2" d="M14.453 0.281422C13.5409 1.34835 12.6816 2.31002 11.8705 3.30997C9.72122 5.96293 7.59118 8.63025 5.45633 11.2928C4.91479 11.9698 4.94608 12.2449 5.62721 12.7688C6.78249 13.6587 7.94017 14.5486 9.10267 15.4313C9.73566 15.9122 10.0654 15.8667 10.5732 15.2447C11.5697 14.0223 12.5613 12.7951 13.5553 11.5727C14.1474 10.8454 14.4771 10.8048 15.2112 11.3598C15.37 11.4794 15.5313 11.599 15.6877 11.7234C16.2774 12.1899 16.3231 12.5439 15.8538 13.1324C14.2966 15.0821 12.7346 17.0293 11.1701 18.9742C10.5997 19.6823 10.294 19.7182 9.56719 19.168C6.93412 17.18 4.30105 15.1945 1.67039 13.2042C0.996484 12.6946 0.962788 12.4363 1.48266 11.7856C4.03149 8.5848 6.58032 5.38402 9.13396 2.18563C10.489 0.48476 12.3735 0.274245 14.453 0.281422Z" fill="#000000"/>
</g>
</svg>